<svg xmlns="http://www.w3.org/2000/svg" width="15.22" height="11.415" viewBox="0 0 15.22 11.415">
  <path id="envelope" d="M13.793,64H1.427A1.427,1.427,0,0,0,0,65.427v8.561a1.427,1.427,0,0,0,1.427,1.427H13.793a1.427,1.427,0,0,0,1.427-1.427V65.427A1.427,1.427,0,0,0,13.793,64Zm0,1.427V66.64c-.667.543-1.729,1.387-4,3.166-.5.394-1.492,1.34-2.182,1.329-.69.011-1.682-.935-2.182-1.329-2.271-1.779-3.334-2.623-4-3.166V65.427ZM1.427,73.988V68.471c.681.543,1.647,1.3,3.119,2.457.65.511,1.788,1.64,3.064,1.634S10,71.455,10.673,70.928c1.472-1.153,2.439-1.914,3.12-2.457v5.517Z" transform="translate(0 -64)" fill="#0da9ff"/>
</svg>
