<?xml version="1.0" encoding="UTF-8"?>
<svg version="1.1" width="15" height="21.49" viewBox="0 0 15 21.49" xml:space="preserve" xmlns="http://www.w3.org/2000/svg">


<g transform="translate(-3.245 0) scale(0.23885)" fill="none">
	<path d="m45 0c-17.323 0-31.416 14.093-31.416 31.416 0 4.818 1.063 9.442 3.175 13.773 2.905 5.831 11.409 20.208 20.412 35.428l4.385 7.417c0.719 1.218 2.029 1.966 3.444 1.966s2.725-0.748 3.444-1.966l4.382-7.413c8.942-15.116 17.392-29.4 20.353-35.309 0.027-0.051 0.055-0.103 0.08-0.155 2.095-4.303 3.157-8.926 3.157-13.741 0-17.323-14.093-31.416-31.416-31.416zm0 42.81c-6.892 0-12.5-5.607-12.5-12.5s5.608-12.5 12.5-12.5 12.5 5.608 12.5 12.5-5.608 12.5-12.5 12.5z" fill="#0da9ff" stroke-linecap="round"/>
</g>
</svg>
 